<svg width="11" height="20" viewBox="0 0 11 20" fill="none" xmlns="http://www.w3.org/2000/svg">
<path fill-rule="evenodd" clip-rule="evenodd" d="M8.93027 0.198426C8.42634 0.517624 0.317641 8.96949 0.146102 9.35437C-0.0487007 9.79159 -0.0487007 10.2084 0.146102 10.6456C0.317641 11.0305 8.42634 19.4824 8.93027 19.8016C9.81388 20.3611 11 19.6676 11 18.5913C11 18.3592 10.9473 18.0648 10.8829 17.9369C10.8184 17.8091 9.0913 15.971 7.04475 13.8522L3.32388 10L7.04475 6.14776C9.0913 4.02898 10.8184 2.19092 10.8829 2.06308C10.9473 1.93516 11 1.64076 11 1.40868C11 0.332372 9.81388 -0.361118 8.93027 0.198426Z" fill="#444444"/>
</svg>
