<svg width="24" height="28" viewBox="0 0 24 28" fill="none" xmlns="http://www.w3.org/2000/svg">
<path d="M13.6962 14.5546C13.6962 15.6219 13.6962 16.3622 13.6962 17.1024C13.7254 20.4421 15.752 22.8349 18.5805 22.8694C20.3739 22.8866 20.3739 22.8866 20.9425 24.9352C21.4382 26.6911 20.855 27.6207 19.2658 27.6207C13.4775 27.6207 7.70377 27.6207 1.91547 27.6207C0.311653 27.6207 -0.315292 26.7255 0.209592 24.9524C0.792797 22.9554 1.40516 20.9585 2.20707 19.0649C3.27142 16.6376 5.03561 15.1571 7.33927 14.8989C9.40965 14.6751 11.4946 14.6579 13.6962 14.5546Z" fill="#444444"/>
<path d="M10.62 0.111328C13.3173 0.111328 15.3148 1.86724 15.7376 4.62162C16.1896 7.51372 14.3963 11.9896 12.2238 13.4184C11.0866 14.1759 9.96392 14.1242 8.85583 13.3151C6.69797 11.7314 5.06499 7.44486 5.5024 4.50112C5.83774 2.05661 7.71858 0.283477 10.1826 0.111328C10.3284 0.111328 10.4742 0.111328 10.62 0.111328Z" fill="#444444"/>
<path d="M19.4116 11.5592C21.8464 11.5764 23.6981 13.711 23.6835 16.5171C23.669 19.3403 21.7735 21.4405 19.2803 21.4233C16.86 21.4061 15.0229 19.237 15.0521 16.4138C15.0813 13.6078 16.9184 11.542 19.4116 11.5592ZM19.3824 20.4248C21.3216 20.4248 22.7941 18.7378 22.8087 16.5171C22.8233 14.2619 21.3216 12.5404 19.3678 12.5404C17.3849 12.5404 15.9123 14.2275 15.9123 16.4999C15.9269 18.7722 17.3849 20.4248 19.3824 20.4248Z" fill="#444444"/>
<path d="M19.47 17.9976C18.916 17.9976 18.3474 18.0492 17.8079 17.9631C17.5746 17.9287 17.3559 17.5844 17.1372 17.3951C17.3413 17.2057 17.5455 16.8442 17.7496 16.8442C18.8868 16.7925 20.0241 16.7925 21.1613 16.8442C21.38 16.8614 21.5696 17.1885 21.7883 17.3778C21.5696 17.5844 21.38 17.9287 21.1467 17.9631C20.5927 18.0492 20.0241 17.9976 19.47 17.9976Z" fill="#444444"/>
<path d="M18.8282 14.8472C19.1927 14.8472 19.5573 14.7784 19.9072 14.8645C20.1113 14.9161 20.2571 15.226 20.4175 15.4325C20.2571 15.6047 20.1113 15.9318 19.9363 15.949C19.1927 16.0006 18.4492 16.0006 17.7056 15.949C17.5452 15.9318 17.3994 15.6047 17.239 15.4325C17.3994 15.2432 17.5452 14.9161 17.7493 14.8645C18.0992 14.7784 18.4783 14.8472 18.8282 14.8472Z" fill="#444444"/>
</svg>
