<svg width="42" height="44" viewBox="0 0 42 44" fill="none" xmlns="http://www.w3.org/2000/svg">
<rect x="0.5" y="25.2559" width="17.2264" height="17.2264" rx="3.5" stroke="#6D6BDE"/>
<rect x="4.8584" y="29.6144" width="8.50945" height="8.50945" rx="1.5" fill="#707070" stroke="#707070"/>
<rect x="24.2734" y="1.48224" width="17.2264" height="17.2264" rx="3.5" stroke="#6D6BDE"/>
<rect x="28.6316" y="5.84073" width="8.50945" height="8.50945" rx="1.5" fill="#707070" stroke="#707070"/>
<rect x="0.5" y="1.48224" width="17.2264" height="17.2264" rx="3.5" stroke="#6D6BDE"/>
<rect x="4.8584" y="5.84073" width="8.50945" height="8.50945" rx="1.5" fill="#707070" stroke="#707070"/>
<path d="M27.0485 43.0997C25.4013 43.1024 24.0414 41.751 24.0383 40.1078C24.0353 38.4722 25.383 37.1187 27.0247 37.1096C28.6689 37.1001 30.0301 38.4549 30.0311 40.1007C30.0318 41.7411 28.6838 43.097 27.0488 43.0997H27.0485Z" fill="#E38372"/>
<path d="M27.0291 25.1562C28.6838 25.1525 30.0261 26.4795 30.0308 28.1243C30.0359 29.7752 28.6896 31.1354 27.0441 31.1317C25.4206 31.128 24.0458 29.8624 24.0461 28.1392C24.0461 26.378 25.4786 25.1375 27.0291 25.1562Z" fill="#E38372"/>
<path d="M38.9798 31.1327C37.3455 31.1276 36.0036 29.7705 36.0073 28.1266C36.0111 26.4818 37.3523 25.162 39.0063 25.1538C40.5687 25.146 41.9866 26.3912 41.9961 28.1534C42.0049 29.7986 40.6331 31.1381 38.9798 31.1331V31.1327Z" fill="#E38372"/>
<path d="M34.329 40.306C34.2584 40.3925 34.1512 40.4613 34.1048 40.5461C34.0637 40.6211 34.2262 40.6872 34.2672 40.7849C34.3581 41.002 34.2978 41.2089 34.0674 41.4009C34.1536 41.4725 34.2526 41.5295 34.3134 41.6499C34.4253 41.4956 34.5515 41.3775 34.7418 41.383C34.8588 41.3863 34.9602 41.4396 35.0413 41.5241C35.2258 41.7164 35.1831 42.0176 34.928 42.2615C35.0338 42.3131 35.1132 42.3901 35.1685 42.4925C35.3815 42.194 35.6875 42.172 35.8948 42.3789C36.0657 42.5498 36.0403 42.8429 35.8527 42.9976C35.6387 43.174 35.3927 43.1211 35.177 42.8409C35.0783 42.9956 34.9487 43.0983 34.7581 43.1C34.5634 43.1017 34.4297 43.002 34.328 42.846C34.0512 43.1872 33.7547 43.1879 33.4708 42.8541C33.1767 43.1899 32.904 43.1896 32.618 42.8534C32.3704 43.1295 32.0861 43.1781 31.8738 42.9806C31.6903 42.8103 31.6892 42.5414 31.8707 42.3633C32.0695 42.1682 32.3697 42.2154 32.6177 42.4806C32.6261 42.4749 32.6367 42.4708 32.6434 42.4633C32.7571 42.3402 32.8809 42.252 32.6716 42.0675C32.4983 41.9148 32.5776 41.6387 32.7774 41.4756C32.8195 41.4413 32.8819 41.4304 32.7995 41.3579C32.4969 41.0916 32.5183 40.8195 32.8704 40.5475C32.7523 40.4932 32.6763 40.4026 32.618 40.2948C32.3616 40.5692 32.0447 40.6055 31.849 40.3914C31.6553 40.1798 31.7076 39.9169 31.9939 39.6944C31.9016 39.6279 31.8236 39.5495 31.7561 39.4386C31.634 39.6045 31.484 39.6991 31.2812 39.6781C31.157 39.6652 31.0536 39.6113 30.9759 39.5146C30.8042 39.3006 30.868 39.039 31.1343 38.8528C30.8616 38.6174 30.8032 38.3179 30.9905 38.1126C31.1584 37.9288 31.4348 37.92 31.6105 38.0923C31.808 38.2867 31.7683 38.5974 31.5166 38.8291C31.5061 38.8525 31.5261 38.8575 31.5393 38.8657C31.7021 38.9647 31.8005 38.9671 31.9759 38.8769C32.1736 38.7751 32.3972 38.8162 32.5386 38.9956C32.5983 39.0716 32.6275 39.0828 32.6774 38.9942C32.7167 38.924 32.7893 38.8874 32.8714 38.8487C32.6811 38.7198 32.5532 38.5689 32.6024 38.3348C32.6417 38.1466 32.7557 38.0224 32.946 37.9797C33.1692 37.9295 33.328 38.0302 33.4572 38.2236C33.5736 38.073 33.7014 37.9505 33.9026 37.9671C34.021 37.977 34.1187 38.0282 34.1967 38.1171C34.3473 38.288 34.3371 38.5387 34.1733 38.6998C33.9765 38.8932 33.736 38.8592 33.4745 38.596C33.3995 38.694 33.3269 38.7948 33.2042 38.8416C33.5339 39.1371 33.5359 39.4013 33.2082 39.7001C33.3212 39.751 33.3948 39.8419 33.464 39.9386C33.7683 39.5875 34.0352 39.5851 34.3161 39.925C34.5695 39.651 34.8093 39.6024 35.0087 39.7846C35.1899 39.9501 35.2048 40.2185 35.042 40.3904C34.8412 40.6024 34.6085 40.575 34.3293 40.3056L34.329 40.306Z" fill="#6D6BDD"/>
<path d="M38.8358 36.285C38.7222 36.21 38.6424 36.135 38.599 36.0261C38.3277 36.2918 38.022 36.3284 37.8361 36.1262C37.6774 35.9536 37.6879 35.6659 37.8585 35.515C38.0787 35.3203 38.3755 35.3769 38.6017 35.6595C38.6584 35.5652 38.7361 35.4922 38.8344 35.4264C38.6852 35.3342 38.5844 35.2171 38.577 35.0374C38.5695 34.8606 38.6211 34.7148 38.7747 34.6154C38.8314 34.5787 38.8185 34.5482 38.7693 34.5157C38.692 34.4641 38.6431 34.3881 38.6011 34.3064C38.3368 34.594 38.0356 34.6323 37.8314 34.4064C37.6703 34.2283 37.6927 33.938 37.8799 33.7867C38.0902 33.6164 38.4206 33.6924 38.6034 33.9665C38.6662 33.8691 38.7344 33.7819 38.8527 33.728C38.7004 33.6154 38.579 33.497 38.5776 33.3009C38.576 33.1045 38.6781 32.975 38.8358 32.8769C38.5539 32.6391 38.4949 32.3393 38.6842 32.1307C38.8548 31.9431 39.1245 31.9339 39.3019 32.11C39.5078 32.3142 39.4677 32.6151 39.1916 32.8654C39.293 32.921 39.3799 32.9906 39.4433 33.1025C39.5498 32.9502 39.6743 32.8376 39.8582 32.8369C39.9745 32.8362 40.0783 32.8844 40.1607 32.9692C40.3575 33.1714 40.3134 33.4678 40.041 33.7263C40.1533 33.7979 40.2415 33.8898 40.2723 34.0218C40.3151 34.2053 40.234 34.3935 40.0742 34.4889C39.9046 34.5903 39.6998 34.5787 39.5634 34.4237C39.4674 34.3148 39.4297 34.3386 39.3622 34.438C39.3256 34.4916 39.2625 34.5272 39.2021 34.5787C39.3307 34.6937 39.4416 34.8199 39.4335 35.015C39.4253 35.2049 39.3249 35.3274 39.1747 35.4234C39.5084 35.6961 39.5217 35.8989 39.2252 36.2412C39.1842 36.2887 39.2076 36.2996 39.2394 36.3308C39.5078 36.5933 39.5098 36.8182 39.2449 37.0845C39.2052 37.1245 39.1923 37.1367 39.2398 37.1856C39.5247 37.4803 39.5061 37.7208 39.1811 37.9987C39.3656 38.1126 39.4725 38.2717 39.4196 38.4922C39.3785 38.6635 39.2662 38.7778 39.0831 38.81C38.8639 38.8487 38.714 38.7507 38.6065 38.5682C38.3175 38.9098 38.0281 38.9132 37.7456 38.5767C37.6916 38.7018 37.5984 38.787 37.4776 38.847C37.7049 39.0373 37.7707 39.2259 37.6849 39.4247C37.618 39.5797 37.4281 39.6927 37.2595 39.6777C37.0814 39.6618 36.922 39.5261 36.884 39.3589C36.8338 39.137 36.9033 38.9922 37.136 38.8487C37.1197 38.8334 37.1034 38.8219 37.0912 38.807C36.9681 38.6598 36.8718 38.5841 36.6774 38.7615C36.5058 38.9182 36.2049 38.8178 36.0831 38.6286C35.9549 38.4294 35.9986 38.2093 36.2001 38.0441C36.2208 38.0271 36.2429 38.0119 36.2748 37.9878C36.0739 37.8426 35.9586 37.6706 36.0383 37.4206C36.0692 37.3243 36.1299 37.2524 36.2076 37.1937C36.2527 37.1594 36.2839 37.1462 36.2201 37.0858C35.9627 36.8436 35.9423 36.5828 36.1547 36.3833C36.3514 36.1988 36.6855 36.2073 36.867 36.4976C36.8691 36.501 36.8762 36.5014 36.8813 36.5031C37.1479 36.2239 37.3867 36.1818 37.5916 36.3779C37.8002 36.5774 37.7581 36.8752 37.4844 37.1384C37.789 37.4159 37.8039 37.6282 37.5342 37.9386C37.4969 37.9814 37.5013 37.9956 37.5424 38.0278C37.6581 38.1191 37.7289 38.2754 37.9094 38.058C38.0749 37.8586 38.3738 37.9508 38.6075 38.2181C38.6608 38.1292 38.7259 38.0529 38.8405 37.998C38.6231 37.8643 38.5502 37.6832 38.5851 37.4549C38.6072 37.3101 38.7951 37.2286 38.7873 37.131C38.7798 37.0383 38.6089 36.9569 38.5868 36.8202C38.5515 36.6011 38.6082 36.4166 38.8375 36.2853L38.8358 36.285Z" fill="#6D6BDD"/>
<path d="M34.9122 29.4465C35.2269 29.6602 35.2588 30.0676 34.902 30.3047C35.2205 30.5296 35.252 30.8251 34.9722 31.0947C34.8725 31.1907 34.9769 31.204 35.0115 31.2386C35.1493 31.3773 35.191 31.5357 35.1225 31.7189C35.0614 31.8824 34.9067 31.9821 34.7249 31.9825C34.539 31.9828 34.4105 31.8868 34.3396 31.7267C34.2683 31.5656 34.288 31.4058 34.4169 31.2721C34.4556 31.2318 34.4983 31.1951 34.539 31.1568C34.2086 30.8308 34.2158 30.532 34.5645 30.299C34.4664 30.2365 34.3803 30.1653 34.3304 30.0605C33.9898 30.3234 33.7287 30.341 33.5438 30.1175C33.3793 29.918 33.4359 29.6558 33.6991 29.4384C33.5611 29.3332 33.4532 29.2121 33.4525 29.0239C33.4519 28.8353 33.5434 28.7047 33.7012 28.6005C33.6791 28.5792 33.6618 28.5663 33.6489 28.55C33.5353 28.4092 33.4461 28.3356 33.2633 28.5042C33.0889 28.665 32.8152 28.5642 32.6133 28.318C32.5106 28.4594 32.3918 28.5656 32.2002 28.5663C32.0095 28.567 31.8773 28.4849 31.7657 28.3125C31.6405 28.5018 31.4739 28.5917 31.2514 28.5612C31.1303 28.5446 31.0404 28.4822 30.9682 28.3919C30.8237 28.2111 30.8701 27.9255 31.0625 27.7912C31.2904 27.6318 31.5709 27.6989 31.7541 27.9625C31.8325 27.8909 31.8796 27.7885 32.0034 27.7396C31.8325 27.6297 31.7297 27.4995 31.7338 27.3051C31.7375 27.1175 31.826 26.9842 31.9973 26.8852C31.844 26.7773 31.7344 26.6538 31.7331 26.4605C31.7317 26.2644 31.8325 26.1335 31.9953 26.0225C31.8837 25.9625 31.8114 25.8777 31.7572 25.7749C31.478 26.0521 31.1822 26.0792 30.9851 25.854C30.8332 25.6803 30.8583 25.3903 31.0374 25.2451C31.244 25.0775 31.5631 25.1396 31.7626 25.4059C31.8688 25.2335 32.0126 25.1318 32.2212 25.1569C32.3352 25.1708 32.4247 25.2207 32.496 25.3065C32.6625 25.5076 32.6021 25.819 32.341 26.0314C32.5452 26.144 32.6099 26.3227 32.5808 26.5409C32.5604 26.6928 32.4773 26.8 32.324 26.8723C32.4834 26.9754 32.5886 27.0992 32.5869 27.2942C32.5852 27.4798 32.5224 27.6243 32.345 27.7227C32.4641 27.7824 32.5536 27.856 32.6066 27.974C32.8389 27.6256 33.2395 27.6223 33.4763 27.9645C33.5306 27.8756 33.5967 27.802 33.7022 27.7434C33.5455 27.6314 33.4478 27.5008 33.4508 27.3071C33.4539 27.1107 33.535 26.9717 33.7239 26.8811C33.5736 26.7827 33.46 26.6728 33.4542 26.4907C33.4505 26.3679 33.4702 26.2559 33.5567 26.1609C33.7694 25.9272 34.0312 25.9547 34.3274 26.2485C34.3925 26.1708 34.4532 26.089 34.5448 26.0382C34.27 25.7556 34.229 25.4622 34.4305 25.2678C34.5882 25.1152 34.8789 25.1179 35.0312 25.2729C35.2293 25.4747 35.1869 25.7685 34.923 26.0242C35.1944 26.3065 35.2269 26.5381 35.0227 26.7359C34.826 26.9265 34.5977 26.8933 34.324 26.628C34.2575 26.7335 34.1808 26.8292 34.058 26.8736C34.3949 27.1982 34.3942 27.4472 34.059 27.7322C34.3877 28.0151 34.3942 28.2651 34.0709 28.5921C34.1693 28.6501 34.2483 28.7281 34.3155 28.8186C34.5631 28.533 34.8226 28.4869 35.0265 28.6874C35.2324 28.8902 35.1893 29.206 34.9115 29.4458L34.9122 29.4465Z" fill="#6D6BDD"/>
<path d="M26.3698 34.5693C26.7012 34.8349 26.6812 35.1747 26.382 35.4224C26.4753 35.4855 26.5774 35.5387 26.6201 35.671C26.7347 35.5194 26.8525 35.3959 27.0485 35.4037C27.1754 35.4088 27.2768 35.4624 27.3589 35.555C27.5159 35.7324 27.4912 36.0065 27.3063 36.1598C27.0967 36.3331 26.8402 36.2765 26.6326 36.0007C26.5319 36.1618 26.3989 36.2643 26.2002 36.2575C26.0689 36.2531 25.9573 36.2137 25.8681 36.1164C25.6764 35.9074 25.7297 35.6452 26.0078 35.4278C25.6645 35.1734 25.6584 34.8749 25.997 34.5733C25.9152 34.499 25.8297 34.4285 25.7761 34.3277C25.4552 34.6425 25.1832 34.6323 24.9305 34.3064C24.6568 34.593 24.3681 34.6323 24.1615 34.4112C23.9651 34.2009 24.0092 33.9536 24.285 33.7195C24.0048 33.4597 23.9614 33.188 24.1659 32.9746C24.3331 32.7999 24.5991 32.7959 24.7711 32.9655C24.9793 33.1707 24.9461 33.4556 24.6761 33.7104C24.7687 33.7738 24.8627 33.8349 24.9112 33.9441C25.2141 33.611 25.5146 33.6103 25.7772 33.9407C25.8508 33.8617 25.9044 33.7609 26.0244 33.7317C25.6639 33.402 25.6652 33.1313 26.0105 32.8729C25.7263 32.6303 25.6713 32.3288 25.8735 32.1195C26.0478 31.939 26.3199 31.9387 26.4926 32.1185C26.6842 32.3183 26.6377 32.6242 26.3718 32.8617C26.4685 32.9285 26.5736 32.9851 26.617 33.1086C26.8565 32.8077 27.1021 32.7558 27.3202 32.9468C27.499 33.1032 27.5085 33.4044 27.3402 33.5699C27.1347 33.7725 26.8786 33.7338 26.6265 33.4465C26.5814 33.5733 26.4885 33.65 26.3698 33.7236C26.5231 33.8301 26.6082 33.9627 26.6099 34.1466C26.6116 34.3372 26.5095 34.4624 26.3698 34.5693V34.5693Z" fill="#6D6BDD"/>
<path d="M32.5769 33.0577C32.6149 33.0988 32.6356 33.0811 32.661 33.0401C32.6983 32.9797 32.7458 32.9271 32.8154 32.9007C32.9399 33.0533 33.0325 33.0679 33.1922 32.9522C33.2394 32.918 33.2757 32.8963 33.3167 32.9539C33.3856 33.0306 33.4185 33.1263 33.4575 33.2189C33.4965 33.2616 33.4982 33.3023 33.4521 33.3413C33.3788 33.5323 33.2709 33.6826 33.0406 33.6863C33.0046 33.6497 32.9778 33.6863 32.9477 33.6982C32.9005 33.7127 32.8571 33.706 32.8181 33.6748C32.8079 33.6629 32.7994 33.6503 32.7923 33.6364C32.7041 33.5906 32.6827 33.4709 32.5786 33.4424C32.5413 33.4112 32.5437 33.3637 32.5281 33.3182C32.5179 33.3746 32.5426 33.4105 32.5806 33.4404C32.4589 33.7304 32.0854 33.7938 31.8568 33.5543C31.7828 33.4767 31.7543 33.4611 31.6909 33.5598C31.6471 33.6276 31.5698 33.6737 31.5077 33.7297C31.7224 33.9085 31.7835 34.0733 31.7089 34.2714C31.6434 34.4454 31.4646 34.5638 31.2859 34.552C31.1037 34.5401 30.9456 34.4061 30.8988 34.2246C30.8486 34.0289 30.9256 33.8651 31.1339 33.7273C31.1163 33.6609 31.0427 33.65 31.007 33.6018C30.9735 33.5567 30.9395 33.5119 30.8995 33.4583C30.7737 33.63 30.6142 33.7304 30.3954 33.6883C30.1936 33.6497 30.0613 33.517 30.0349 33.3335C30.0088 33.152 30.0956 32.9767 30.2537 32.8925C30.4324 32.7976 30.6648 32.8064 30.7849 32.957C30.8978 33.0991 30.9592 33.071 31.045 32.9492C31.0664 32.9187 31.1071 32.9014 31.1627 32.8607C30.9785 32.7579 30.869 32.6107 30.8863 32.399C30.8965 32.2755 30.9497 32.1738 31.0467 32.0927C31.2706 31.9054 31.5098 31.9516 31.7621 32.2389C31.8269 32.1537 31.891 32.0686 31.988 32.0147C31.7007 31.7687 31.6546 31.4635 31.8656 31.2535C32.0352 31.0846 32.33 31.0954 32.488 31.2759C32.6644 31.4777 32.6044 31.8033 32.3554 31.9977C32.6597 32.3437 32.6722 32.5459 32.4066 32.8247C32.4283 32.9285 32.5304 32.9726 32.5779 33.0574L32.5769 33.0577Z" fill="#6D6BDD"/>
<path d="M31.5013 36.2826C31.7693 36.5292 31.8086 36.7938 31.6071 36.9922C31.4399 37.1568 31.1675 37.1486 30.9996 36.9743C30.809 36.7762 30.8524 36.5167 31.1231 36.2826C31.0519 36.1995 30.9433 36.1473 30.9118 36.0296C30.5763 36.3464 30.3015 36.3362 30.0563 36.0068C29.7588 36.3518 29.4698 36.3528 29.1977 36.0099C28.9759 36.283 28.6669 36.3379 28.4545 36.1418C28.2795 35.9804 28.2792 35.6853 28.4535 35.5204C28.6655 35.3203 28.9779 35.3746 29.2015 35.6581C29.2988 35.5001 29.4284 35.4017 29.6238 35.4017C29.8219 35.4017 29.9504 35.5038 30.0525 35.6653C30.1122 35.5648 30.1903 35.4926 30.2808 35.4315C30.0159 35.2202 29.9515 34.9129 30.1255 34.7022C30.2781 34.5177 30.5712 34.5004 30.7459 34.6659C30.9582 34.8671 30.9263 35.1561 30.6536 35.4248C30.7571 35.475 30.8314 35.5557 30.9006 35.6422C31.1696 35.3654 31.4172 35.3305 31.6173 35.5367C31.8147 35.7399 31.7703 36.0275 31.502 36.2826H31.5013Z" fill="#6D6BDD"/>
<path d="M40.3018 41.6448C40.4402 41.4535 40.5982 41.3283 40.8381 41.4081C41.1413 41.5088 41.2468 41.9135 41.0226 42.1421C40.9415 42.2249 40.894 42.2714 41.0273 42.3429C41.0782 42.3701 41.1101 42.4325 41.161 42.4901C41.2651 42.3422 41.3916 42.233 41.588 42.2479C41.7003 42.2564 41.797 42.2914 41.8743 42.3745C42.0382 42.5505 42.0283 42.8192 41.8523 42.9806C41.6399 43.175 41.4028 43.1316 41.1627 42.8538C40.8659 43.1896 40.6094 43.1906 40.3001 42.849C40.1654 43.0515 39.9843 43.1496 39.7404 43.0783C39.5667 43.0274 39.4605 42.9077 39.4361 42.7296C39.4076 42.522 39.5036 42.3721 39.6831 42.272C39.3866 41.9745 39.3516 41.7066 39.5796 41.5037C39.8038 41.3039 40.0759 41.3524 40.3014 41.6455L40.3018 41.6448Z" fill="#6D6BDD"/>
<path d="M41.3863 38.8463C41.0477 38.5702 41.0454 38.2738 41.3795 37.9959C41.0491 37.6818 41.0481 37.4346 41.3754 37.1374C41.0484 36.8301 41.0494 36.5855 41.3781 36.2785C41.0993 36.0374 41.0525 35.7524 41.2563 35.5346C41.4154 35.3644 41.6994 35.36 41.8662 35.5251C42.0786 35.7355 42.0362 36.0245 41.7546 36.2823C42.083 36.5767 42.0837 36.8667 41.7458 37.1333C41.8883 37.2426 42.0033 37.3725 41.9982 37.5624C41.9934 37.7432 41.9151 37.8881 41.7329 37.9854C41.8941 38.097 42.0016 38.2286 41.9985 38.4179C41.9955 38.6075 41.9022 38.7483 41.738 38.8443C42.025 39.0621 42.0769 39.3239 41.8818 39.54C41.7234 39.7157 41.427 39.7205 41.2597 39.5495C41.0532 39.3385 41.101 39.075 41.3869 38.8463H41.3863Z" fill="#6D6BDD"/>
<path d="M35.7679 32.8546C35.8856 32.9132 35.964 32.9909 36.0247 33.0883C36.2862 32.7996 36.5189 32.7592 36.7289 32.957C36.9087 33.1266 36.91 33.4058 36.7319 33.5764C36.5288 33.7711 36.2794 33.728 36.0366 33.457C35.7479 33.8111 35.3975 33.7545 35.1801 33.4512C34.9379 33.7351 34.6417 33.7813 34.427 33.5686C34.2554 33.3986 34.2645 33.1113 34.4467 32.9482C34.6672 32.7511 34.9691 32.8084 35.1726 33.0862C35.1818 33.0811 35.1926 33.0774 35.2001 33.0703C35.331 32.9472 35.406 32.8525 35.2296 32.6724C35.0624 32.5021 35.1475 32.1985 35.3415 32.0618C35.5271 31.9309 35.7716 31.9675 35.9178 32.148C36.0617 32.3254 36.0376 32.6215 35.8653 32.7806C35.8405 32.8033 35.8117 32.8217 35.7679 32.8546V32.8546Z" fill="#6D6BDD"/>
<path d="M32.7102 35.2924C32.5277 35.0513 32.5277 34.9549 32.7098 34.7049C32.7766 34.7687 32.76 34.8708 32.8299 34.94C32.9228 35.0319 32.9954 35.0475 33.0785 34.9397C33.0897 34.9292 33.0989 34.9166 33.1142 34.9115C33.1006 34.9091 33.0962 34.9217 33.0887 34.9285C33.0731 34.9431 33.0555 34.9532 33.0344 34.9587C32.8818 34.9003 32.8533 34.7507 32.9585 34.5628C33.1739 34.5302 33.3384 34.6011 33.4405 34.7992C33.4344 34.8399 33.4004 34.8847 33.454 34.9176C33.4785 34.9325 33.4849 34.9872 33.5287 34.9573C33.5507 34.9424 33.5789 34.921 33.5833 34.8973C33.5901 34.8596 33.5453 34.8681 33.5246 34.8542C33.5053 34.8413 33.49 34.8277 33.4903 34.8026C33.5924 34.611 33.723 34.5374 33.9269 34.556C34.0982 34.5716 34.2396 34.6887 34.2861 34.8664C34.3496 35.11 34.2563 35.2935 34.0402 35.4281C34.2244 35.5438 34.3339 35.6924 34.2926 35.9105C34.2586 36.0886 34.1437 36.2039 33.971 36.2446C33.7576 36.2952 33.5996 36.1971 33.4741 36.0106C33.3652 36.1422 33.2522 36.2555 33.0694 36.2575C32.8424 36.2599 32.6749 36.1551 32.6118 35.957C32.5497 35.7626 32.626 35.5774 32.8187 35.4532C32.8377 35.441 32.8564 35.4288 32.8754 35.4166C32.9005 35.3467 33.0083 35.3888 33.03 35.2799C32.9164 35.3664 32.8143 35.3009 32.7095 35.2924H32.7102Z" fill="#6D6BDD"/>
<path d="M29.1977 32.2392C29.4168 31.9546 29.6793 31.9048 29.893 32.1001C30.0691 32.2616 30.0701 32.5503 29.8954 32.7199C29.6987 32.9105 29.4239 32.863 29.1895 32.5862C29.0735 32.8013 28.8873 32.8583 28.6597 32.8284C28.5111 32.8091 28.4382 32.6246 28.3367 32.6263C28.2458 32.6276 28.1715 32.8054 28.0301 32.8284C27.7794 32.8691 27.5783 32.7748 27.4986 32.572C27.4212 32.3749 27.4874 32.1636 27.6614 32.053C27.8568 31.9288 28.1057 31.9665 28.2747 32.1466C28.3103 32.1846 28.3225 32.2467 28.3971 32.1721C28.6783 31.8905 28.9544 31.9136 29.1983 32.2389L29.1977 32.2392Z" fill="#6D6BDD"/>
<path d="M41.7402 32.8657C42.04 33.053 42.1201 33.4448 41.7429 33.7219C41.8955 33.8165 41.9953 33.9481 41.9953 34.1276C41.9953 34.2426 41.9451 34.3464 41.8592 34.4285C41.6767 34.6025 41.4078 34.5896 41.2436 34.399C41.0597 34.1859 41.1079 33.9437 41.3782 33.7212C41.0105 33.4234 41.0869 33.0821 41.3793 32.8661C41.0967 32.6022 41.0529 32.3169 41.2633 32.109C41.4366 31.9373 41.7253 31.9455 41.8843 32.1259C42.0787 32.3471 42.0272 32.6317 41.7402 32.8657V32.8657Z" fill="#6D6BDD"/>
<path d="M40.0608 39.6923C40.1996 39.8233 40.3095 39.9481 40.5164 39.7395C40.6643 39.5902 40.9475 39.6866 41.0635 39.864C41.1826 40.0458 41.1466 40.2982 40.9828 40.4311C40.8037 40.5763 40.5557 40.5682 40.4038 40.3948C40.3291 40.31 40.3007 40.2917 40.2159 40.3901C40.0449 40.5889 39.7328 40.5838 39.5503 40.3989C39.3733 40.2191 39.3906 39.96 39.5924 39.7704C39.6165 39.7476 39.6419 39.7259 39.667 39.7035C39.3933 39.4345 39.3526 39.1516 39.5544 38.9505C39.7169 38.7887 39.992 38.7836 40.1517 38.9396C40.3532 39.1364 40.3176 39.4315 40.0605 39.6927L40.0608 39.6923Z" fill="#6D6BDD"/>
<path d="M35.6065 34.554C35.7497 34.5489 35.8731 34.5848 35.9457 34.6948C36.0254 34.8148 36.0634 34.7619 36.1306 34.6866C36.2581 34.5435 36.4586 34.5119 36.6255 34.5937C36.7927 34.6758 36.8816 34.8488 36.8572 35.0431C36.8355 35.2141 36.6927 35.365 36.5153 35.3952C36.3599 35.4217 36.214 35.3833 36.1208 35.2558C36.0427 35.1493 36.0122 35.1822 35.9433 35.2616C35.8158 35.4081 35.6455 35.4319 35.463 35.3816C35.2853 35.3325 35.1876 35.2063 35.1598 35.0326C35.1326 34.8613 35.2083 34.726 35.345 34.6232C35.4264 34.5618 35.5197 34.5486 35.6065 34.5543V34.554Z" fill="#6D6BDD"/>
<path d="M27.7124 34.5713C27.4322 34.3484 27.3817 34.0486 27.5788 33.8332C27.7341 33.6636 28.0286 33.6541 28.1876 33.8135C28.3969 34.0231 28.3532 34.3322 28.0798 34.5726C28.3542 34.8206 28.3929 35.0723 28.1876 35.2789C28.016 35.4519 27.7334 35.4424 27.5703 35.2582C27.3861 35.0503 27.4353 34.8026 27.7121 34.571L27.7124 34.5713Z" fill="#6D6BDD"/>
<path d="M36.6221 40.5471C36.8962 40.8124 36.9345 41.0719 36.7347 41.267C36.5716 41.426 36.2805 41.4169 36.1252 41.248C35.9318 41.0373 35.9769 40.7927 36.2524 40.5539C35.9722 40.3172 35.9257 40.0102 36.1381 39.8016C36.3128 39.6296 36.5963 39.6401 36.7558 39.8243C36.9454 40.0434 36.8928 40.3453 36.6218 40.5471H36.6221Z" fill="#6D6BDD"/>
<path d="M41.5571 41.3792C41.3237 41.3758 41.1334 41.1886 41.1331 40.9623C41.1327 40.7324 41.3349 40.5302 41.5655 40.5302C41.7962 40.5302 41.9984 40.732 41.998 40.9623C41.998 41.1957 41.7996 41.383 41.5571 41.3792Z" fill="#6D6BDD"/>
<path d="M24.4742 36.2558C24.2378 36.2565 24.0383 36.0594 24.041 35.8274C24.0438 35.595 24.2452 35.401 24.4803 35.4041C24.7066 35.4071 24.9006 35.5994 24.905 35.8247C24.9094 36.056 24.7106 36.2548 24.4742 36.2555V36.2558Z" fill="#6D6BDD"/>
<path d="M31.7339 30.7121C31.7305 30.9475 31.5321 31.1388 31.298 31.1324C31.0704 31.1259 30.8845 30.9336 30.8845 30.7043C30.8845 30.4648 31.0738 30.2779 31.3143 30.2803C31.5572 30.2823 31.7373 30.4679 31.7339 30.7121Z" fill="#6D6BDD"/>
<path d="M33.0271 30.2799C33.2564 30.2833 33.4514 30.4757 33.4517 30.6989C33.4521 30.9265 33.2472 31.132 33.0196 31.1324C32.792 31.1324 32.5868 30.9278 32.5864 30.6999C32.5864 30.4692 32.7886 30.2762 33.0271 30.2799V30.2799Z" fill="#6D6BDD"/>
<path d="M31.2976 41.3792C31.0571 41.3745 30.8753 41.1821 30.8841 40.941C30.8926 40.712 31.0849 40.5278 31.3132 40.5302C31.5483 40.5325 31.7362 40.7276 31.7331 40.9654C31.7297 41.211 31.5479 41.3836 31.2976 41.3789V41.3792Z" fill="#6D6BDD"/>
<path d="M33.6959 32.825C33.5962 32.729 33.4798 32.6473 33.4581 32.4926C33.4252 32.2606 33.5497 32.0564 33.7668 31.9981C33.9734 31.9424 34.1932 32.0564 34.2736 32.2603C34.3529 32.4618 34.2688 32.6802 34.0694 32.7911C34.0449 32.8047 34.0202 32.8176 33.9958 32.8308C33.8947 32.8875 33.7946 32.9061 33.6962 32.825H33.6959Z" fill="#6D6BDD"/>
<path d="M38.147 40.5302C38.3838 40.5315 38.5795 40.7279 38.5765 40.9606C38.5731 41.1984 38.3811 41.3826 38.1399 41.3789C37.8998 41.3751 37.7264 41.2015 37.7244 40.962C37.7223 40.7242 37.914 40.5285 38.1474 40.5298L38.147 40.5302Z" fill="#6D6BDD"/>
<path d="M38.1399 42.2486C38.3817 42.2456 38.5727 42.4291 38.5761 42.6672C38.5791 42.8867 38.3837 43.0909 38.1626 43.0983C37.9295 43.1065 37.7291 42.9151 37.724 42.6801C37.7189 42.4291 37.8899 42.2517 38.1395 42.2486H38.1399Z" fill="#6D6BDD"/>
<path d="M29.178 34.1202C29.1783 33.8715 29.3554 33.6992 29.6074 33.7019C29.8469 33.7046 30.0369 33.899 30.0304 34.1344C30.024 34.3562 29.8228 34.553 29.6033 34.5523C29.3686 34.5513 29.1776 34.3576 29.1783 34.1202H29.178Z" fill="#6D6BDD"/>
<path d="M34.7295 37.96C34.4877 37.961 34.3086 37.788 34.3045 37.5499C34.3004 37.3067 34.486 37.1147 34.7268 37.1123C34.9649 37.1099 35.1569 37.3053 35.1535 37.5465C35.1505 37.7843 34.9711 37.9593 34.7292 37.96H34.7295Z" fill="#6D6BDD"/>
<path d="M33.0862 34.9302C33.0781 34.9855 33.1052 35.0659 33.0068 35.0615C32.9414 35.0584 32.8756 35.0859 32.8186 35.0014C32.7555 34.9075 32.689 34.8257 32.71 34.7053C32.7517 34.5862 32.8169 34.5072 32.9587 34.5628C32.9553 34.6415 32.9502 34.7202 32.9485 34.7989C32.9468 34.8925 32.9807 34.9519 33.0886 34.9329L33.0862 34.9305V34.9302Z" fill="#DF8377"/>
<path d="M32.0826 35.1693C31.9829 35.1842 31.9517 35.1323 32.0083 35.0465C32.0714 34.9512 32.0802 34.7969 32.2468 34.8003C32.2854 34.8009 32.3244 34.7948 32.3397 34.8484C32.3685 34.9488 32.2 35.17 32.0826 35.1693Z" fill="#E48777"/>
<path d="M33.3168 32.9533C33.29 32.9533 33.2422 32.9455 33.2391 32.9536C33.1706 33.1432 33.0132 33.0482 32.8955 33.055C32.7971 33.0605 32.829 32.9601 32.8154 32.9004C32.8324 32.8098 32.8968 32.8295 32.9569 32.839C32.9989 32.8868 33.041 32.8848 33.0831 32.8396C33.1669 32.8651 33.3317 32.725 33.3164 32.9536L33.3168 32.9533Z" fill="#DB837C"/>
<path d="M32.7925 33.6358C32.7999 33.6368 32.8071 33.6388 32.8138 33.6425C32.8512 33.7148 33.0462 33.6812 32.9485 33.8437C32.8722 33.9149 32.8505 34.0493 32.7121 34.0493L32.7145 34.0516C32.5967 33.8861 32.7413 33.7697 32.7921 33.6358H32.7925Z" fill="#E48574"/>
<path d="M33.6958 32.825C33.7955 32.8271 33.8956 32.8288 33.9953 32.8308C33.9831 32.9115 33.9346 32.9339 33.8552 32.9411C33.746 32.9509 33.6008 32.8702 33.5421 33.0438C33.5394 33.0516 33.4943 33.0571 33.4828 33.0476C33.4438 33.0143 33.4597 32.9648 33.4587 32.9214C33.458 32.8827 33.4556 32.8379 33.5113 32.8339C33.5727 32.8291 33.6344 32.8281 33.6958 32.8254V32.825Z" fill="#E28677"/>
<path d="M32.71 35.2925C32.7202 35.2063 32.7433 35.1429 32.8199 35.2521C32.8678 35.3203 32.9129 35.3267 32.9526 35.2562C32.9756 35.2151 32.998 35.1948 33.0421 35.2077C33.0927 35.2226 33.0821 35.268 33.0828 35.305C33.0835 35.3491 33.0876 35.3993 33.0255 35.4068C32.976 35.4129 32.9258 35.4132 32.8759 35.4163C32.7969 35.4064 32.6934 35.4295 32.71 35.2921V35.2925Z" fill="#DF8276"/>
<path d="M33.4906 34.8023C33.5228 34.8094 33.5547 34.8172 33.5869 34.823C33.6232 34.8294 33.6734 34.8091 33.6887 34.8579C33.7097 34.9248 33.6548 34.9261 33.6107 34.9349C33.5679 34.9434 33.5686 34.98 33.5615 35.0126C33.5567 35.0347 33.5401 35.0665 33.5204 35.055C33.4482 35.0133 33.3892 34.9448 33.3383 34.8871C33.2854 34.8271 33.4078 34.8359 33.4401 34.7989C33.4567 34.8003 33.4736 34.8013 33.4903 34.8026L33.4906 34.8023Z" fill="#DF8277"/>
<path d="M33.4521 33.3406C33.4538 33.2999 33.4559 33.2589 33.4576 33.2182C33.4898 33.2117 33.539 33.1971 33.5471 33.2314C33.5787 33.3651 33.5736 33.5024 33.5604 33.6381C33.5576 33.6673 33.5295 33.7012 33.4891 33.6927C33.4535 33.6853 33.4593 33.6503 33.4586 33.6242C33.4555 33.5299 33.4542 33.4353 33.4521 33.341V33.3406Z" fill="#E48676"/>
<path d="M32.5769 33.0577C32.4585 33.0727 32.4544 32.8868 32.3279 32.9156C32.3303 32.8654 32.3547 32.8339 32.4052 32.8247C32.606 32.7966 32.5894 32.9285 32.5765 33.0574L32.5769 33.0577Z" fill="#E08578"/>
<path d="M32.4158 34.5564C32.4463 34.5693 32.5165 34.5262 32.5128 34.5974C32.508 34.687 32.4317 34.6941 32.3618 34.6853C32.3215 34.6802 32.2428 34.7175 32.2523 34.6344C32.2624 34.5459 32.3435 34.5533 32.4158 34.5564V34.5564Z" fill="#E38272"/>
<path d="M32.3235 35.4092C32.3486 35.2884 32.4917 35.3152 32.5029 35.2114C32.5029 35.2104 32.5521 35.2053 32.5616 35.2165C32.5925 35.2535 32.5786 35.3016 32.5789 35.3454C32.5789 35.3847 32.5599 35.4085 32.5189 35.4092C32.4582 35.4098 32.3971 35.4092 32.3238 35.4092H32.3235Z" fill="#E38372"/>
<path d="M32.1042 35.3152C32.0343 35.4573 31.9254 35.3976 31.8179 35.403C31.8861 35.2355 32.0133 35.3389 32.1042 35.3152Z" fill="#E48676"/>
<path d="M32.7123 34.0493C32.7123 34.092 32.7378 34.1497 32.693 34.1717C32.6523 34.1917 32.5963 34.1849 32.5475 34.1836C32.5214 34.1829 32.5156 34.1588 32.5224 34.1344C32.538 34.0794 32.5723 34.0499 32.6316 34.052C32.6594 34.053 32.6872 34.052 32.7151 34.0513L32.7123 34.0489V34.0493Z" fill="#E58D7D"/>
<path d="M32.566 34.2928C32.5982 34.3013 32.6623 34.2785 32.6576 34.3471C32.6538 34.401 32.6138 34.4342 32.5527 34.4312C32.5093 34.4292 32.4768 34.4197 32.4754 34.3667C32.4737 34.3064 32.5076 34.2897 32.5663 34.2928H32.566Z" fill="#E79587"/>
<path d="M33.085 34.0855C33.0718 34.1737 33.1301 34.2521 33.0307 34.2928C33.008 34.302 32.9605 34.3135 32.9612 34.2782C32.9629 34.2049 33.0022 34.1449 33.085 34.0852V34.0855Z" fill="#E69081"/>
<path d="M33.3232 33.8135C33.3619 33.8288 33.4314 33.7741 33.4375 33.8518C33.4402 33.8857 33.409 33.9499 33.3588 33.9366C33.2961 33.92 33.3324 33.8549 33.3263 33.8108L33.3236 33.8135H33.3232Z" fill="#E68B7A"/>
<path d="M33.0832 32.8396C33.0852 32.8868 33.0863 32.9343 33.0198 32.9339C32.9536 32.9339 32.9546 32.8858 32.9567 32.8389C32.9987 32.8389 33.0408 32.8393 33.0829 32.8396H33.0832Z" fill="#8B7BCF"/>
<path d="M33.3254 33.8108C33.0982 33.8054 33.3054 33.7155 33.3227 33.6646C33.3227 33.7141 33.3227 33.764 33.3227 33.8135L33.3254 33.8108V33.8108Z" fill="#E79384"/>
<path d="M32.9484 33.8437C33.0037 33.7097 32.8229 33.7334 32.8137 33.6425C32.8609 33.6541 32.9084 33.6659 32.9558 33.6778C32.9823 33.6731 32.9966 33.6795 32.9857 33.7097C32.9782 33.7558 33.0016 33.8104 32.9487 33.844L32.9484 33.8437Z" fill="#E5C1C6"/>
<path d="M33.7088 33.364C33.6979 33.2999 33.6731 33.2494 33.7291 33.2148C33.7369 33.21 33.7671 33.2219 33.7705 33.2317C33.7868 33.2809 33.7579 33.3152 33.7088 33.364V33.364Z" fill="#E99F91"/>
<path d="M33.2289 34.1727C33.2144 34.1232 33.192 34.0733 33.2646 34.0543C33.2778 34.0509 33.3076 34.0615 33.308 34.0672C33.3127 34.1229 33.2842 34.1571 33.2289 34.1727Z" fill="#E69182"/>
<path d="M33.1749 33.9458C33.1589 33.9448 33.1379 33.9427 33.1454 33.9217C33.1521 33.9027 33.1664 33.881 33.1837 33.8722C33.2142 33.8562 33.2179 33.883 33.2166 33.9044C33.2152 33.9292 33.1993 33.9424 33.1749 33.9458V33.9458Z" fill="#EA9A8C"/>
<path d="M32.9854 33.7094C32.9756 33.6988 32.9654 33.688 32.9556 33.6775C32.9661 33.6463 32.981 33.6154 33.02 33.6229C33.0563 33.63 33.0488 33.6592 33.0404 33.6853C33.0217 33.6934 33.0034 33.7012 32.9851 33.709L32.9854 33.7094Z" fill="#DC8178"/>
<path d="M27.0365 37.96C28.2071 37.9647 29.1786 38.9223 29.1738 40.0984C29.1691 41.2829 28.2658 42.2428 27.031 42.2401C25.7336 42.2371 24.893 41.1665 24.9022 40.0848C24.9117 39.0075 25.7712 37.9892 27.0365 37.9603V37.96Z" fill="#FEFEFE"/>
<path d="M24.9077 28.1324C24.9101 26.9432 25.8497 26.0161 27.04 26.0049C28.1278 25.9947 29.179 26.8828 29.1736 28.1555C29.1685 29.3376 28.1964 30.2867 27.0261 30.28C25.846 30.2728 24.9053 29.3193 24.9077 28.1324V28.1324Z" fill="#FEFEFE"/>
<path d="M39.0114 26.0076C40.1973 26.01 41.1328 26.954 41.1308 28.1453C41.1288 29.3295 40.1766 30.2915 38.9996 30.2772C37.7828 30.2626 36.8693 29.3179 36.8652 28.1422C36.8612 26.9459 37.8208 26.0049 39.0114 26.0076V26.0076Z" fill="#FEFEFE"/>
<path d="M33.2261 41.4291C33.2376 41.4009 33.2383 41.3941 33.242 41.3911C33.3211 41.3233 33.4008 41.2558 33.4801 41.1882C33.5354 41.2822 33.6145 41.3524 33.7074 41.4036C33.6999 41.4216 33.6979 41.4369 33.6918 41.4386C33.5863 41.4701 33.5473 41.6346 33.4574 41.618C33.378 41.6034 33.3322 41.4674 33.2264 41.4284L33.2261 41.4291Z" fill="#F9F9FD"/>
<path d="M33.7189 40.5441C33.6171 40.6163 33.5323 40.6869 33.4716 40.7965C33.3936 40.7069 33.3302 40.6211 33.2131 40.561C33.3251 40.4837 33.4106 40.4081 33.4713 40.2876C33.531 40.4104 33.6066 40.4891 33.7189 40.5441Z" fill="#F9F9FD"/>
<path d="M32.3495 39.6916C32.4953 39.6455 32.5326 39.4776 32.6229 39.4959C32.6941 39.5102 32.7531 39.638 32.8457 39.6998C32.7691 39.7792 32.6771 39.8389 32.628 39.9505C32.5554 39.8504 32.4899 39.7591 32.3491 39.6916H32.3495Z" fill="#FAFAFD"/>
<path d="M33.4755 42.4949C33.3968 42.404 33.3418 42.3168 33.2319 42.2744C33.3096 42.1862 33.4073 42.1289 33.4575 42.0325C33.4751 42.0373 33.4904 42.0373 33.4928 42.043C33.5342 42.1384 33.6838 42.1869 33.6743 42.2642C33.6651 42.3405 33.5315 42.3911 33.4751 42.4952L33.4755 42.4949Z" fill="#FAFAFD"/>
<path d="M34.5617 42.2628C34.5098 42.3025 34.4637 42.3324 34.4246 42.3697C34.3887 42.4039 34.3602 42.4463 34.3229 42.4925C34.2581 42.3999 34.1909 42.3178 34.0776 42.271C34.1618 42.1865 34.2683 42.1434 34.3083 42.0033C34.385 42.1251 34.4609 42.2031 34.562 42.2628H34.5617Z" fill="#F9F9FD"/>
<path d="M36.8984 37.3725C36.8713 37.3521 36.8584 37.3477 36.8546 37.3392C36.8143 37.2466 36.6548 37.2063 36.6796 37.1225C36.702 37.0475 36.818 36.9888 36.8841 36.8972C36.952 36.9915 37.0181 37.0665 37.1158 37.1286C37.0412 37.208 36.9469 37.2633 36.8981 37.3725H36.8984Z" fill="#F8F8FD"/>
<path d="M36.8848 37.7303C36.9475 37.8582 37.0262 37.9284 37.1324 37.9929C37.0381 38.0618 36.9611 38.131 36.8929 38.2307C36.8268 38.1306 36.7538 38.0546 36.647 37.9926C36.7314 37.9162 36.8213 37.8569 36.8844 37.7303H36.8848Z" fill="#F8F8FD"/>
<path d="M39.7102 33.7206C39.5803 33.7735 39.5165 33.8589 39.4541 33.9522C39.3717 33.8674 39.3103 33.7779 39.1997 33.7263C39.2933 33.652 39.3825 33.5852 39.4443 33.4746C39.5159 33.5744 39.5827 33.6632 39.7099 33.7206H39.7102Z" fill="#F9F9FD"/>
<path d="M34.5597 29.4442C34.4647 29.5106 34.3881 29.5741 34.3355 29.6674C34.3168 29.6541 34.2968 29.6473 34.2941 29.6365C34.2693 29.5357 34.0926 29.5205 34.1296 29.4197C34.1564 29.3468 34.2629 29.2929 34.3175 29.2009C34.386 29.3027 34.4583 29.379 34.5597 29.4445V29.4442Z" fill="#FAFAFD"/>
<path d="M31.7647 33.0984C31.6792 33.0143 31.5527 32.9461 31.5459 32.8678C31.5388 32.784 31.7063 32.7487 31.7365 32.6219C31.8298 32.7067 31.8824 32.8084 32.015 32.86C31.8963 32.9248 31.8186 33.0001 31.7643 33.0984H31.7647Z" fill="#F9F9FD"/>
<path d="M32.0002 33.4431C32.061 33.3562 32.0949 33.2989 32.1373 33.249C32.1827 33.1958 32.2516 33.1914 32.3072 33.2182C32.3693 33.248 32.3384 33.3176 32.3395 33.3701C32.3408 33.4577 32.2716 33.441 32.2187 33.4427C32.158 33.4448 32.0969 33.4431 32.0002 33.4431V33.4431Z" fill="#DE8177"/>
<path d="M32.5806 33.44C32.4062 33.4421 32.4914 33.3166 32.4849 33.2389C32.4836 33.2202 32.5134 33.2101 32.5382 33.2138C32.565 33.2182 32.5758 33.2379 32.5769 33.2599C32.5792 33.3203 32.5782 33.381 32.5785 33.4417L32.5806 33.4397V33.44Z" fill="#DD8178"/>
<path d="M33.2242 33.3366C33.2018 33.3349 33.1794 33.3332 33.157 33.3318C33.1102 33.3294 33.0824 33.3084 33.0878 33.2586C33.0902 33.2355 33.1031 33.2165 33.1292 33.2131C33.1757 33.207 33.2055 33.2256 33.2144 33.2725C33.2184 33.2945 33.2194 33.3172 33.2218 33.3393L33.2245 33.3366H33.2242Z" fill="#E18274"/>
<path d="M32.9542 33.264C32.9542 33.3037 32.9393 33.3288 32.8972 33.3284C32.8609 33.3284 32.8321 33.3132 32.8293 33.2742C32.8263 33.2348 32.8517 33.2155 32.8887 33.2121C32.927 33.2087 32.9508 33.2253 32.9542 33.2643V33.264Z" fill="#E38272"/>
<path d="M33.2215 33.339C33.2653 33.3325 33.3145 33.3193 33.3213 33.3861C33.3247 33.418 33.3026 33.4397 33.2711 33.4363C33.2042 33.4292 33.2181 33.38 33.2242 33.3362L33.2215 33.339Z" fill="#DC8178"/>
<path d="M40.3047 42.5054C40.2416 42.3965 40.1728 42.3239 40.0676 42.2703C40.148 42.1865 40.2461 42.1336 40.2901 42.022C40.3736 42.1055 40.4255 42.2035 40.5564 42.2622C40.4458 42.3236 40.378 42.3992 40.3047 42.5054Z" fill="#F8F8FD"/>
<path d="M33.3324 35.3365C33.3731 35.2952 33.4138 35.2534 33.4545 35.2121C33.5163 35.231 33.4708 35.3535 33.5722 35.3342L33.695 35.4003C33.7106 35.3935 33.7211 35.3979 33.7256 35.4146C33.6333 35.4851 33.5285 35.5421 33.4745 35.6778C33.4098 35.5502 33.3066 35.4905 33.2222 35.4112C33.2507 35.3739 33.2863 35.3471 33.3328 35.3365H33.3324Z" fill="#F7F4F9"/>
<path d="M33.9843 34.8006C34.0572 34.7962 34.0725 34.8338 34.0698 34.885C34.0664 34.9553 34.0498 35.0258 33.9711 35.0397C33.9239 35.0482 33.9321 34.9926 33.9368 34.9644C33.946 34.9068 33.8961 34.8253 33.9843 34.8006V34.8006Z" fill="#D6807E"/>
<path d="M33.5725 35.3342C33.5627 35.3718 33.5559 35.4136 33.5013 35.4047C33.4555 35.3973 33.4616 35.3596 33.4596 35.3277C33.4572 35.2891 33.4562 35.2507 33.4548 35.2121C33.5773 35.1727 33.5647 35.2633 33.5725 35.3342Z" fill="#E38372"/>
<path d="M33.0886 34.9326C33.0832 34.881 33.0757 34.8271 33.1527 34.826C33.1822 34.8257 33.2131 34.8362 33.2117 34.8701C33.208 34.9641 33.1334 34.921 33.0859 34.9305L33.0883 34.9329L33.0886 34.9326Z" fill="#D17F82"/>
<path d="M33.7256 35.4149C33.7144 35.4128 33.7042 35.4078 33.6951 35.4006C33.6951 35.3494 33.6951 35.2975 33.7694 35.3057C33.789 35.3077 33.8182 35.3067 33.8162 35.3375C33.8124 35.3918 33.769 35.4044 33.7256 35.4149V35.4149Z" fill="#D6807D"/>
<path d="M33.3324 35.3366C33.3269 35.4078 33.2767 35.4129 33.2218 35.4112C33.2103 35.3152 33.232 35.2677 33.3324 35.3366Z" fill="#E28475"/>
<path d="M28.3138 40.1113C28.3111 40.8273 27.7494 41.3819 27.0289 41.3792C26.3125 41.3765 25.7562 40.8151 25.7586 40.0967C25.7606 39.3847 26.3277 38.8243 27.0442 38.8263C27.7582 38.8284 28.3165 39.3938 28.3142 40.1113H28.3138Z" fill="#E38272"/>
<path d="M27.0429 29.4126C26.3217 29.4146 25.7603 28.8604 25.7583 28.145C25.7566 27.4316 26.3217 26.8597 27.0297 26.8577C27.743 26.8557 28.3115 27.4198 28.3136 28.1318C28.3159 28.8495 27.7593 29.4106 27.0426 29.4126H27.0429Z" fill="#E38272"/>
<path d="M38.9866 29.4126C38.2722 29.4079 37.7196 28.8431 37.7244 28.1233C37.7295 27.4137 38.3014 26.8536 39.0171 26.858C39.7227 26.8621 40.2844 27.4388 40.28 28.1541C40.2752 28.8668 39.7098 29.4177 38.9866 29.413V29.4126Z" fill="#E38272"/>
</svg>
