<svg width="24" height="29" viewBox="0 0 24 29" fill="none" xmlns="http://www.w3.org/2000/svg">
<path d="M12.3547 0C13.668 0.463505 14.2345 1.40339 14.1315 2.76815C14.1057 3.14153 14.2474 3.27028 14.6079 3.38616C18.1356 4.50629 20.5433 7.5577 20.7235 11.3172C20.8523 14.0339 20.7879 16.7634 20.8523 19.4929C20.8652 19.8277 21.0454 20.2268 21.2772 20.4843C21.8437 21.1281 22.4359 21.759 23.0926 22.2997C23.8136 22.8791 23.9295 23.5744 23.7363 24.4499C15.8696 24.4499 8.00292 24.4499 0.0975911 24.4499C-0.0054099 23.716 -0.0955358 23.0336 0.612596 22.4413C1.32073 21.862 1.95161 21.1796 2.56962 20.4843C2.80137 20.2268 2.98162 19.8277 2.98162 19.4929C3.04599 16.7634 2.91724 14.0339 3.12325 11.3301C3.38075 7.98258 4.92576 5.2788 8.09304 3.84966C9.1488 3.37328 9.85694 3.02565 9.81831 1.68664C9.77969 0.772508 10.6552 0.334753 11.4535 0C11.7496 0 12.0586 0 12.3547 0Z" fill="#444444"/>
<path d="M11.4534 28.969C10.5264 28.6986 9.70236 28.2609 9.27748 27.3339C9.11011 26.9605 9.01998 26.5356 8.86548 26.0592C10.9126 26.0592 12.8439 26.0592 14.7752 26.0592C14.891 27.3854 14.0928 28.351 12.3418 28.9819C12.0585 28.969 11.7495 28.969 11.4534 28.969Z" fill="#444444"/>
</svg>
