<svg width="22" height="28" viewBox="0 0 22 28" fill="none" xmlns="http://www.w3.org/2000/svg">
<path d="M10.1474 27.9693C7.2574 26.8055 4.36744 25.6664 1.48927 24.4778C0.297895 23.9825 -0.30369 22.4101 0.215324 21.1596C0.970254 19.3271 1.77237 17.5195 2.59807 15.7118C2.98733 14.8451 3.76585 14.7213 4.70951 15.1794C5.77113 15.6994 6.83275 16.2813 7.95335 16.5909C10.4541 17.2595 12.8604 16.8385 15.1016 15.4889C15.3729 15.328 15.6442 15.1546 15.9391 15.0308C16.8356 14.6594 17.5787 14.907 18.0623 15.7737C19.0768 17.6061 20.0912 19.4386 21.0585 21.3082C21.6836 22.5091 21.259 23.8092 20.0558 24.3416C17.5315 25.4683 14.9954 26.5578 12.4593 27.6598C12.1409 27.796 11.787 27.8703 11.4567 27.9693C11.0085 27.9693 10.5838 27.9693 10.1474 27.9693Z" fill="#B08BE7"/>
<path d="M10.8551 0.111328C11.8459 0.482768 12.9193 0.705632 13.804 1.25041C16.5524 2.95903 17.7202 6.41343 16.7765 9.62019C15.8329 12.7774 12.9311 14.8699 9.74626 14.6842C6.62038 14.4984 3.96633 12.0841 3.32936 8.85255C2.53904 4.79147 5.20489 0.817064 9.10929 0.22276C9.22725 0.210379 9.33341 0.148472 9.43957 0.111328C9.9114 0.111328 10.3832 0.111328 10.8551 0.111328Z" fill="#B08BE7"/>
</svg>
