<svg width="29" height="30" viewBox="0 0 29 30" fill="none" xmlns="http://www.w3.org/2000/svg">
<path d="M12.6459 0.932861C13.793 0.932861 14.9401 0.932861 16.0871 0.932861C17.0303 1.27699 17.4891 1.9525 17.5274 2.95939C17.5401 3.40549 17.6803 3.83883 17.6931 4.28492C17.7058 4.66729 17.9352 4.76925 18.2284 4.94769C19.1078 5.483 19.8216 5.36829 20.4971 4.60356C20.6755 4.39963 20.9177 4.25943 21.1471 4.09374C21.9756 3.48196 22.8677 3.54569 23.6197 4.25943C24.2188 4.83298 24.8051 5.41927 25.3786 6.01831C26.1051 6.77029 26.1561 7.66248 25.5443 8.49093C25.1874 8.96252 24.8178 9.42136 24.4609 9.90568C24.3717 10.0331 24.2315 10.2243 24.2697 10.339C24.4482 10.8361 24.5756 11.3969 24.9198 11.7665C25.1237 11.9959 25.6717 11.945 26.0541 12.0087C26.258 12.0469 26.4747 12.0979 26.6786 12.0979C27.6855 12.1234 28.361 12.595 28.7052 13.5381C28.7052 14.6852 28.7052 15.8323 28.7052 16.9794C28.361 17.9226 27.6855 18.3814 26.6786 18.4197C26.2326 18.4324 25.7992 18.5726 25.3531 18.5854C24.9707 18.5981 24.8688 18.8275 24.6903 19.1207C24.155 20.0001 24.2825 20.7139 25.0345 21.3894C25.2384 21.5678 25.3786 21.81 25.5443 22.0394C26.1561 22.8678 26.0924 23.76 25.3786 24.512C24.8051 25.111 24.2188 25.6973 23.6197 26.2709C22.8677 26.9974 21.9883 27.0611 21.1471 26.4366C20.6628 26.0797 20.2167 25.6973 19.7324 25.3532C19.6049 25.264 19.4265 25.1493 19.2863 25.162C18.2794 25.2767 17.7058 25.8885 17.6039 26.8827C17.5784 27.1121 17.5146 27.3415 17.5146 27.5709C17.4891 28.5778 17.0176 29.2533 16.0744 29.5975C14.9273 29.5975 13.7802 29.5975 12.6331 29.5975C11.7027 29.2533 11.2184 28.5778 11.1929 27.5709C11.1929 27.4307 11.1037 27.2778 11.1164 27.1376C11.2184 26.0797 10.7085 25.5189 9.7144 25.264C9.38302 25.1748 9.17909 25.162 8.92418 25.3787C8.46534 25.7611 8.00651 26.1307 7.52218 26.4748C6.73196 27.0356 5.83977 26.9846 5.15152 26.3091C4.53973 25.7228 3.9407 25.1238 3.3544 24.512C2.62791 23.7728 2.57693 22.8806 3.18871 22.0394C3.54559 21.5551 3.92795 21.109 4.27208 20.6246C4.3613 20.4972 4.48875 20.306 4.45052 20.1913C4.27208 19.6942 4.14462 19.1334 3.8005 18.7638C3.59657 18.5344 3.04851 18.5854 2.66615 18.5216C2.46222 18.4834 2.24555 18.4324 2.04162 18.4197C1.04747 18.4069 0.37196 17.9353 0.027832 16.9922C0.027832 15.8451 0.027832 14.698 0.027832 13.5509C0.295487 12.9391 0.639615 12.3783 1.36611 12.2254C1.73573 12.1489 2.11809 12.0214 2.48771 12.0597C3.55833 12.1489 4.09364 11.6391 4.3613 10.6449C4.45052 10.3135 4.46326 10.1096 4.24659 9.8547C3.86422 9.40861 3.4946 8.93703 3.15048 8.4527C2.58967 7.67522 2.6534 6.77029 3.31617 6.08204C3.91521 5.45751 4.53973 4.83298 5.16426 4.23394C5.86526 3.57118 6.75745 3.50745 7.53492 4.06825C8.032 4.42512 8.50358 4.82023 9.00065 5.18985C9.12811 5.27907 9.31929 5.40653 9.434 5.36829C9.93108 5.18985 10.4919 5.0624 10.8615 4.71827C11.0909 4.51434 11.0399 3.96629 11.1037 3.58392C11.1419 3.37999 11.1929 3.16332 11.1929 2.95939C11.2311 1.9525 11.7027 1.27699 12.6459 0.932861ZM14.3792 9.2939C11.0782 9.28115 8.38887 11.9705 8.38887 15.2715C8.38887 18.5599 11.0272 21.2109 14.3283 21.2364C17.6293 21.2747 20.3186 18.5981 20.3441 15.2843C20.3696 11.9959 17.6931 9.30665 14.3792 9.2939Z" fill="#B08BE7"/>
</svg>
