<svg width="32" height="32" viewBox="0 0 32 32" fill="none" xmlns="http://www.w3.org/2000/svg">
<circle cx="16" cy="16" r="16" fill="#eee"/>
<path fill-rule="evenodd" clip-rule="evenodd" d="M11.6988 9.01575C11.291 9.06177 10.7169 9.22463 10.5445 9.34322C10.0454 9.68655 9.39552 10.7213 9.15246 11.5599C8.91611 12.3753 8.95276 13.1428 9.275 14.1258C9.4023 14.5141 9.99843 16.0584 10.1366 16.3578C10.8237 17.8466 12.6174 19.9878 14.3041 21.3323C15.4071 22.2117 16.0231 22.5845 17.2155 23.0948C17.8288 23.3573 18.8463 23.7261 19.2315 23.8256C19.3121 23.8464 19.5066 23.8979 19.6636 23.9399C19.9316 24.0117 19.982 24.0138 20.4884 23.9744C21.3591 23.9066 22.0451 23.6767 22.7523 23.2159C23.113 22.9808 23.39 22.7334 23.5461 22.5067C23.7976 22.1413 24.0773 20.9484 23.9803 20.6545C23.957 20.584 23.8852 20.4864 23.8207 20.4375C23.6206 20.2859 22.7272 19.7639 22.3304 19.5667C21.9067 19.3561 21.3315 19.0132 21.1926 18.8882C21.025 18.7375 20.5841 18.5416 20.4146 18.5424C20.0885 18.5441 19.8721 18.717 19.3446 19.3971C18.9612 19.8913 18.7062 20.1763 18.5502 20.2844C18.165 20.5516 18.0193 20.4992 16.5417 19.5632C15.0198 18.5993 14.1634 17.6974 13.0835 15.9214C12.4476 14.8757 12.4156 14.7236 12.748 14.3287C12.868 14.1861 13.3519 13.7823 13.6816 13.5495C13.9773 13.3409 14.2659 13.0312 14.3754 12.8051C14.5167 12.5132 14.4361 12.2714 14.0032 11.6888C13.9657 11.6384 13.9002 11.5312 13.8574 11.4506C13.7527 11.2528 12.9797 9.88213 12.7415 9.4717C12.6362 9.2903 12.5193 9.11524 12.4818 9.08262C12.3982 9.00999 12.0293 8.97848 11.6988 9.01575Z" fill="#6D6BDE"/>
</svg>
