<svg width="32" height="32" viewBox="0 0 32 32" fill="none" xmlns="http://www.w3.org/2000/svg">
<circle cx="16" cy="16" r="16" fill="#eee"/>
<path fill-rule="evenodd" clip-rule="evenodd" d="M10.6989 8.05334C10.1119 8.23805 9.51587 8.756 9.20389 9.35244C9.05434 9.63838 9.04502 10.0246 9.02314 16.827L9 24L10.1929 22.7931L11.3858 21.5862H16.8332H22.2805L22.7209 21.3632C22.9631 21.2405 23.2935 20.9831 23.4553 20.7911C24.0239 20.116 24.0174 20.1904 23.9908 14.6421C23.9672 9.68249 23.9659 9.65191 23.7796 9.29782C23.5409 8.84431 23.153 8.45007 22.7067 8.20755L22.3562 8.01707L16.6338 8.00173C13.4864 7.99329 10.8157 8.01655 10.6989 8.05334ZM13.1375 13.7458C13.7535 14.1275 13.9245 14.9453 13.5116 15.5346C13.2808 15.864 12.7124 16.1036 12.3334 16.0314C11.9624 15.9606 11.4973 15.5362 11.3737 15.1557C11.0336 14.1084 12.2078 13.1697 13.1375 13.7458ZM17.1511 13.7695C17.7226 14.1574 17.8929 14.9697 17.5143 15.5009C17.3411 15.744 16.762 16.0724 16.5066 16.0724C16.1674 16.0724 15.6482 15.7288 15.4524 15.3748C14.8491 14.2838 16.1282 13.0751 17.1511 13.7695ZM21.1012 13.7425C21.953 14.2702 21.887 15.4636 20.9814 15.9091C19.9314 16.4257 18.8262 15.2058 19.431 14.1978C19.7844 13.6086 20.5489 13.4003 21.1012 13.7425Z" fill="#6D6BDE"/>
</svg>
