<svg width="16" height="15" viewBox="0 0 16 15" fill="none" xmlns="http://www.w3.org/2000/svg">
<path d="M15.9408 7.30692C14.8469 3.84018 11.9073 1.35241 8.44257 1.35241C7.20232 1.35241 6.0326 1.67654 4.98846 2.24626L3.20696 0.360001L1.88159 1.76333L13.6781 14.2538L15.0035 12.8505L13.4763 11.2335C14.5884 10.2106 15.451 8.85905 15.9408 7.30686L15.9408 7.30692ZM8.44257 3.33726C10.5132 3.33726 12.1917 5.11452 12.1917 7.30692C12.1917 8.04299 11.9945 8.72491 11.6621 9.31253L10.253 7.8205C10.2948 7.65689 10.3171 7.48482 10.3171 7.30689C10.3171 6.21066 9.47785 5.32207 8.44257 5.32207C8.27509 5.32207 8.11437 5.34884 7.96021 5.39282L6.55988 3.91012C7.11404 3.55895 7.74848 3.33726 8.44257 3.33726Z" fill="#B08BE7"/>
<path d="M8.44259 11.2766C6.37199 11.2766 4.69346 9.4993 4.69346 7.30692C4.69346 6.95366 4.75097 6.61742 4.83277 6.29145L2.73756 4.07299C1.94994 4.98621 1.33036 6.08361 0.944336 7.30692C2.03831 10.7737 4.97786 13.2614 8.44259 13.2614C9.32908 13.2614 10.1803 13.0964 10.976 12.796L9.40168 11.1291C9.09379 11.2157 8.7762 11.2766 8.44259 11.2766Z" fill="#B08BE7"/>
</svg>
